<?xml version="1.0" encoding="utf-8"?>
<!-- Generator: Adobe Illustrator 16.0.0, SVG Export Plug-In . SVG Version: 6.00 Build 0)  -->
<!DOCTYPE svg PUBLIC "-//W3C//DTD SVG 1.1//EN" "http://www.w3.org/Graphics/SVG/1.1/DTD/svg11.dtd">
<svg version="1.1" id="Layer_1" xmlns="http://www.w3.org/2000/svg" xmlns:xlink="http://www.w3.org/1999/xlink" x="0px" y="0px"
	 width="1024px" height="768px" viewBox="0 0 1024 768" enable-background="new 0 0 1024 768" xml:space="preserve">
<g>
	<path fill-rule="evenodd" clip-rule="evenodd" fill="#505051" d="M1001.729,510.035l-3.704,13.319h-40.957v-66.567h17.705
		l0.263,53.248H1001.729z M937.247,523.354 M937.247,523.354h-18.229v-66.567h18.229V523.354z M902.898,501.493 M902.898,501.493
		c0,7.039-2.905,12.814-8.984,17.086c-6.078,4.021-14.005,6.28-24.051,6.28c-8.718,0-17.439-2.011-25.363-5.533l5.547-12.807
		c8.195,3.516,15.06,5.023,20.876,5.023c8.197,0,12.423-2.005,12.423-6.526c0-3.768-3.172-6.284-9.251-7.536l-8.717-2.014
		c-12.16-2.514-18.237-9.292-18.237-19.592c0-6.277,2.644-11.303,7.927-15.324c5.285-4.019,12.153-5.776,20.612-5.776
		c10.569,0,19.554,2.013,26.688,6.782l-8.19,11.556c-6.607-3.515-12.683-5.025-18.229-5.025c-2.643,0-5.024,0.502-6.605,1.511
		c-1.856,1.255-2.644,2.763-2.644,4.515c0,1.763,0.257,3.021,1.317,3.769c1.057,0.76,2.907,1.512,5.815,2.262l9.515,2.012
		C896.555,485.167,902.898,491.446,902.898,501.493z M812.264,496.977 M812.264,496.977c-2.908-10.306-5.021-18.336-6.084-24.616
		c-1.318,6.28-3.693,14.311-6.606,24.616H812.264z M840.006,523.354 M840.006,523.354h-18.498l-5.284-14.071h-20.871l-4.761,14.071
		h-18.499l25.901-66.822h17.703L840.006,523.354z M747.258,476.881 M747.258,476.881c0-2.769-1.058-5.024-2.64-6.277
		c-1.857-1.006-5.024-1.762-9.778-1.762h-5.815v15.825h5.549c4.757,0,7.927-0.755,9.777-1.759
		C746.2,481.652,747.258,479.643,747.258,476.881z M770.246,523.354 M770.246,523.354h-20.611c-1.322-2.263-3.965-5.779-7.4-11.058
		c-4.224-7.032-7.131-11.306-8.459-13.064c-1.32-1.752-2.64-2.76-3.428-2.76l-1.323,0.25v26.632h-16.908v-66.822h26.947
		c9.249,0,16.119,2.012,20.083,5.779c3.966,3.771,6.077,8.541,6.077,14.569c0,4.519-1.319,8.534-4.224,12.058
		c-2.645,3.517-6.082,5.772-10.044,6.528C755.45,499.991,761.791,509.538,770.246,523.354z M678.289,502.499 M678.289,502.499
		c0-4.771-3.17-7.032-9.777-7.032h-8.456v15.07h8.456C675.119,510.537,678.289,508.028,678.289,502.499z M677.23,476.13
		 M677.23,476.13c0-4.273-2.905-6.532-8.981-6.532h-8.454v12.809h7.658c3.703,0,6.346-0.505,7.666-1.511
		C676.704,480.143,677.23,478.387,677.23,476.13z M697.845,504.515 M697.845,504.515c0,12.559-8.724,18.84-26.688,18.84h-28.541
		v-66.567h30.655c6.604,0,11.887,1.505,15.851,4.519c3.965,3.017,6.08,7.034,6.08,12.309c0,7.032-3.436,11.801-10.044,14.318
		C693.615,491.197,697.845,496.723,697.845,504.515z"/>
	<path fill-rule="evenodd" clip-rule="evenodd" fill="#9A242A" d="M418.902,378.517c4.757,1.006,8.194,5.026,8.194,9.8
		c0,5.524-4.759,9.793-10.304,9.793c-5.288,0-9.782-3.768-10.311-8.791c-0.792-5.525-4.229-5.525-4.229-1.507
		c0,0.253,0,0.505,0,0.753v0.251c-0.261,5.278-4.75,9.546-10.567,9.546c-5.547,0-10.308-4.521-10.308-9.797
		c0-4.771,3.174-8.541,7.665-9.544c5.29-1.757,3.438-5.273-1.583-4.272c-1.057,0.503-2.378,0.754-3.698,0.754
		c-5.816,0-10.311-4.27-10.311-9.794c0-5.527,4.494-9.798,10.311-9.798c2.901,0,5.545,1.002,7.395,3.014
		c0.53,0.504,1.057,1.008,1.324,1.508c2.905,3.013,5.022,1.005,3.963-1.004c-0.261-0.251-0.532-0.753-0.792-1.006
		c-0.267-0.5-0.528-1.004-0.792-1.759c-0.528-1-0.798-2.259-0.798-3.767c0-5.273,4.761-9.798,10.304-9.798
		c5.818,0,10.575,4.524,10.575,9.798c0,2.261-0.798,4.016-2.117,5.779v0.249c-2.114,2.513,0,4.521,1.585,2.766
		c0.532-0.504,0.795-1.006,1.324-1.509c0.263-0.249,0.263-0.502,0.792-0.753c1.848-1.757,4.227-3.012,7.134-3.012
		c5.812,0,10.308,4.519,10.308,10.045c0,5.275-4.496,9.798-10.308,9.798c-1.85,0-3.438-0.506-5.019-1.259
		c-3.964-1.005-3.699,2.765-2.644,3.267C416.793,378.517,417.846,378.517,418.902,378.517z M403.578,280.551 M403.578,280.551
		c44.921,0,80.859,34.166,80.859,76.616c0,42.452-35.938,76.864-80.859,76.864c-44.658,0-80.594-34.412-80.594-76.864
		C322.983,314.717,358.92,280.551,403.578,280.551z"/>
	<path fill-rule="evenodd" clip-rule="evenodd" fill="#9A242A" d="M120.299,288.084c20.877,1.253,37.526,17.831,37.526,37.927v6.535
		v43.957v32.404c0,2.26,2.111,4.519,4.755,4.519h2.644c2.642,0,4.755-2.259,4.755-4.519v-14.571v-61.79v-36.425
		c0-4.522,3.961-8.037,8.459-8.037h49.939c4.755,0,8.456,3.514,8.456,8.037v36.172v61.29v15.324c0,2.511,2.112,4.519,4.753,4.519
		h2.644c2.379,0,4.492-2.008,4.492-4.519v-32.404v-44.21v-6.282c0-20.096,16.65-36.674,37.524-37.927c0.265,0,0.53,0,1.059,0h1.581
		h21.143c2.903,0,5.021,2.259,5.021,5.022v4.27v8.539v74.355v25.119c0,21.1-17.705,37.929-39.904,37.929c-0.259,0-0.79,0-1.057,0
		H131.403c-22.201,0-39.902-16.829-39.902-37.929c0-0.503,0-0.755,0-1.255c0,0,0-0.252,0-0.503v-48.732v-57.522v-4.27
		c0-2.764,2.374-5.022,5.284-5.022h20.873h1.589C119.777,288.084,120.034,288.084,120.299,288.084z"/>
	<path fill-rule="evenodd" clip-rule="evenodd" fill="#C87531" d="M797.136,382.772c4.419,0.975,7.817,4.519,7.817,9.04
		c0,5.167-4.425,9.367-9.85,9.367c-4.758,0-9.174-3.557-9.521-8.395c-0.674-5.173-3.732-5.173-4.066-1.294c0,0,0,0.321,0,0.646
		c0,5.164-4.424,9.042-9.521,9.042c-5.437,0-9.852-4.2-9.852-9.042c0-4.199,3.055-8.07,7.133-9.042
		c5.097-1.618,3.395-4.847-1.355-3.879c-1.022,0.644-2.378,0.644-3.74,0.644c-5.091,0-9.511-4.19-9.511-9.037
		c0-5.168,4.42-9.367,9.511-9.367c2.718,0,5.445,0.963,7.134,2.905c0.342,0.326,0.681,0.974,1.356,1.294
		c2.723,2.902,4.421,0.965,3.398-0.968c0-0.326-0.334-0.654-0.334-0.972c-0.342-0.328-0.684-0.967-1.021-1.295
		c-0.342-1.286-0.682-2.259-0.682-3.544c0-5.167,4.417-9.369,9.853-9.369c5.438,0,9.521,4.203,9.521,9.369
		c0,1.931-0.682,3.544-1.698,5.158v0.328c-2.051,2.587,0,4.196,1.349,2.587c0.35-0.652,0.684-0.972,1.364-1.613
		c0,0,0.338-0.327,0.682-0.648c1.696-1.618,4.075-2.589,6.794-2.589c5.432,0,9.511,4.198,9.511,9.047
		c0,5.164-4.079,9.365-9.511,9.365c-1.698,0-3.399-0.322-4.762-0.972c-3.729-0.97-3.729,2.266-2.376,2.913
		C795.444,382.452,796.456,382.452,797.136,382.772z M782.869,290.732 M782.869,290.732c42.128,0,76.102,32.294,76.102,72.017
		s-33.974,72.019-76.102,72.019c-41.784,0-75.421-32.296-75.421-72.019S741.085,290.732,782.869,290.732z"/>
	<path fill-rule="evenodd" clip-rule="evenodd" fill="#C87531" d="M874.317,350.309h3.804h74.445h2.425
		c2.417,0,4.151,1.636,4.151,3.939c0,2.312-1.734,3.952-4.151,3.952H884.01h-12.114c-2.079,0-3.809,1.322-4.154,3.292
		c-0.343,1.644-0.343,3.29-0.343,4.934c0,14.814,4.842,28.964,13.152,40.49c13.505,19.086,36.697,31.921,63.361,31.921h0.691
		c0.688,0.334,1.381,0.334,2.075,0.334h47.091c4.502,0,7.959-3.298,7.959-7.57v-44.427c0-3.961-3.457-7.579-7.959-7.579h-31.516
		h-15.575h-8.656c-1.036,0-1.729-0.649-1.729-1.312c0-0.664,0.692-1.322,1.729-1.322h34.968
		c15.929-0.334,28.738-12.832,28.738-27.979c0-5.591,0-10.854,0-16.454v-2.297c0-21.728-18.697-39.498-41.542-39.498h-50.901
		h-33.928c-4.504,0-7.959,3.292-7.959,7.241v35.544v0.658v0.662v0.986v0.658v0.663v0.655v0.66v0.328v0.656v0.658v3.622
		C867.398,347.341,870.509,350.309,874.317,350.309z"/>
	<path fill-rule="evenodd" clip-rule="evenodd" fill="#C87531" d="M626.374,369.496v23.091v33.211c0,4.117-3.666,7.596-7.987,7.596
		h-45.588c-4.328,0-7.984-3.479-7.984-7.596v-32.892v-23.41v-19.612c0-1.903-1.666-3.476-3.659-3.476h-4.994
		c-1.992,0-3.658,1.573-3.658,3.476v19.612v57.25c0,2.846-2.333,5.064-5.322,5.064h-48.919c-2.998,0-5.324-2.219-5.324-5.064
		V295.792c0-2.848,2.326-5.061,5.324-5.061h144.751h1.33h19.63c18.971,0,34.613,14.555,34.613,32.898v102.8
		c0,3.162-2.668,5.381-5.661,5.381h-49.912c-2.996,0-5.324-2.219-5.324-5.381v-56.934v-19.612c0-1.903-1.673-3.476-3.326-3.476
		h-4.658c-1.663,0-3.33,1.573-3.33,3.476V369.496z"/>
	<path fill-rule="evenodd" clip-rule="evenodd" fill="#D47C2E" d="M50.387,346.163c3.271,5.328,0.624,14.953-5.607,22.499
		c-10.589-6.215-15.416-18.499-9.809-26.199c1.869-2.664,4.517-3.551,6.54-3.405C45.405,339.503,48.521,342.167,50.387,346.163z
		 M70.789,360.674 M70.789,360.674c-8.717-0.595-16.042,3.105-21.798,11.397c12.3,8.583,21.952,9.178,29.272,1.478
		c1.871-2.664,2.336-5.178,1.559-6.956C78.263,363.188,75.303,361.265,70.789,360.674z M35.437,373.253 M35.437,373.253
		c0.31,0.741,0.158,1.923,0,2.959c-1.557,6.66-4.67,11.697-9.342,15.397c-2.804,2.224-4.986,3.109-6.699,2.224
		c-2.49-0.893-3.425-3.556-2.801-7.997c0.781-5.328,3.113-9.474,6.696-12.434c2.336-1.777,4.672-2.81,7.32-3.409
		C33.101,369.703,34.815,370.885,35.437,373.253z M36.217,403.599 M36.217,403.599c-5.294,1.481-9.966,0-14.173-4.287
		c6.697-1.928,10.903-5.629,14.173-10.811c6.694-10.211,4.828-16.134,4.828-16.875c-0.156-0.591,11.213,5.627,8.253,15.247
		C47.896,393.979,43.069,400.493,36.217,403.599z M55.063,405.972 M55.063,405.972c2.021-0.15,2.49-1.481,2.178-2.813
		c-0.624-4.442-1.559-9.029-3.271-14.066c-1.87,7.551-5.917,13.475-12.302,17.916C45.405,407.153,45.717,407.303,55.063,405.972z"/>
</g>
</svg>
